<svg width="482" height="348" viewBox="0 0 482 348" fill="none" xmlns="http://www.w3.org/2000/svg">
<g clip-path="url(#clip0_40_53)">
<rect x="55" y="-8" width="607" height="546" fill="white"/>
<path d="M481.303 345.331H0.696532C0.5118 345.331 0.334634 345.258 0.204009 345.127C0.0733839 344.997 0 344.82 0 344.635C0 344.45 0.0733839 344.273 0.204009 344.143C0.334634 344.012 0.5118 343.939 0.696532 343.939H481.303C481.488 343.939 481.665 344.012 481.796 344.143C481.927 344.273 482 344.45 482 344.635C482 344.82 481.927 344.997 481.796 345.127C481.665 345.258 481.488 345.331 481.303 345.331Z" fill="#CCCCCC"/>
<path d="M433.733 223.917H150.942C149.741 223.917 148.589 224.394 147.74 225.243C146.891 226.091 146.414 227.242 146.414 228.443C146.414 229.643 146.891 230.794 147.74 231.642C148.589 232.491 149.741 232.968 150.942 232.968H158.952V341.222C158.952 342.423 159.429 343.574 160.278 344.422C161.127 345.271 162.278 345.748 163.479 345.748C164.68 345.748 165.831 345.271 166.68 344.422C167.53 343.574 168.007 342.423 168.007 341.222L168.075 232.968H415.972V341.222C415.972 342.423 416.449 343.574 417.298 344.422C418.147 345.271 419.299 345.748 420.499 345.748C421.7 345.748 422.852 345.271 423.701 344.422C424.55 343.574 425.027 342.423 425.027 341.222V235.354L426.344 232.968H433.733C434.934 232.968 436.086 232.491 436.935 231.642C437.784 230.794 438.261 229.643 438.261 228.443C438.261 227.242 437.784 226.091 436.935 225.243C436.086 224.394 434.934 223.917 433.733 223.917Z" fill="#8B4040"/>
<path d="M307.724 226.286H222.063C220.404 226.284 218.814 225.625 217.641 224.452C216.468 223.28 215.809 221.691 215.807 220.033V172.896C215.809 171.238 216.468 169.649 217.641 168.476C218.814 167.304 220.404 166.645 222.063 166.643H307.724C309.382 166.645 310.972 167.304 312.145 168.476C313.318 169.649 313.978 171.238 313.98 172.896V220.033C313.978 221.691 313.318 223.28 312.145 224.452C310.972 225.625 309.382 226.284 307.724 226.286Z" fill="#3F3D56"/>
<path d="M307.723 171.455H222.063C221.681 171.456 221.315 171.608 221.045 171.878C220.775 172.148 220.622 172.514 220.622 172.896V220.034C220.622 220.416 220.775 220.782 221.045 221.052C221.315 221.322 221.681 221.474 222.063 221.475H307.723C308.105 221.474 308.472 221.322 308.742 221.052C309.012 220.782 309.164 220.416 309.165 220.034V172.896C309.164 172.514 309.012 172.148 308.742 171.878C308.472 171.608 308.105 171.456 307.723 171.455Z" fill="white"/>
<path d="M272.199 204.828C272.199 204.828 261.945 202.467 256.305 206.797C250.665 211.126 263.483 220.967 263.483 220.967L272.199 204.828Z" fill="#2F2E41"/>
<path d="M265.395 200.366C270.738 200.366 275.068 196.038 275.068 190.698C275.068 185.359 270.738 181.031 265.395 181.031C260.053 181.031 255.723 185.359 255.723 190.698C255.723 196.038 260.053 200.366 265.395 200.366Z" fill="#A0616A"/>
<path d="M257.916 177.127C258.561 176.033 259.496 175.138 260.618 174.541C261.739 173.945 263.004 173.67 264.273 173.746C265.599 173.913 266.894 174.275 268.114 174.821L274.438 177.287C276.074 177.925 277.866 178.706 278.576 180.312C279.235 181.802 278.743 183.523 278.246 185.074L275.88 192.449C275.618 190.78 275.168 189.146 274.539 187.577C273.9 185.999 272.745 184.682 271.262 183.843C269.62 183.001 267.684 183.018 265.84 183.107C263.229 183.233 260.389 183.565 258.534 185.406C257.549 186.451 256.881 187.755 256.608 189.165C256.34 190.567 256.204 191.992 256.205 193.419C255.134 191.58 254.232 189.647 253.509 187.644C252.915 186.153 252.577 184.573 252.508 182.97C252.446 181.353 252.983 179.769 254.016 178.523C254.54 177.914 255.224 177.464 255.991 177.223C256.758 176.981 257.577 176.959 258.355 177.158L257.916 177.127Z" fill="#2F2E41"/>
<path d="M288.492 213.212C288.401 212.885 288.216 212.593 287.959 212.371C287.703 212.149 287.386 212.008 287.05 211.965C287.028 211.95 287.004 211.936 286.98 211.924L272.54 203.835C272.128 203.604 271.642 203.541 271.185 203.659C270.727 203.777 270.332 204.066 270.083 204.468L266.133 210.859L260.185 204.913L260.09 204.819C259.785 204.514 259.382 204.326 258.952 204.288C258.522 204.251 258.092 204.366 257.739 204.613L245.871 212.919C245.85 212.919 245.829 212.926 245.808 212.926C245.24 213.021 244.722 213.306 244.338 213.735C243.954 214.164 243.728 214.711 243.698 215.286L243.391 221.475H290.783L288.492 213.212Z" fill="#6C63FF"/>
<path d="M314.942 220.514H305.799C305.799 220.259 305.697 220.014 305.517 219.834C305.336 219.653 305.091 219.552 304.836 219.552H301.949C301.693 219.552 301.449 219.653 301.268 219.834C301.088 220.014 300.986 220.259 300.986 220.514H298.099C298.099 220.259 297.997 220.014 297.817 219.834C297.636 219.653 297.392 219.552 297.136 219.552H294.249C293.994 219.552 293.749 219.653 293.568 219.834C293.388 220.014 293.286 220.259 293.286 220.514H290.399C290.399 220.259 290.298 220.014 290.117 219.834C289.937 219.653 289.692 219.552 289.436 219.552H286.549C286.294 219.552 286.049 219.653 285.868 219.834C285.688 220.014 285.587 220.259 285.587 220.514H282.699C282.699 220.259 282.598 220.014 282.417 219.834C282.237 219.653 281.992 219.552 281.737 219.552H278.849C278.594 219.552 278.349 219.653 278.169 219.834C277.988 220.014 277.887 220.259 277.887 220.514H274.999C274.999 220.259 274.898 220.014 274.717 219.834C274.537 219.653 274.292 219.552 274.037 219.552H271.149C270.894 219.552 270.649 219.653 270.469 219.834C270.288 220.014 270.187 220.259 270.187 220.514H267.299C267.299 220.259 267.198 220.014 267.018 219.834C266.837 219.653 266.592 219.552 266.337 219.552H263.45C263.194 219.552 262.949 219.653 262.769 219.834C262.588 220.014 262.487 220.259 262.487 220.514H259.6C259.6 220.259 259.498 220.014 259.318 219.834C259.137 219.653 258.892 219.552 258.637 219.552H255.75C255.494 219.552 255.25 219.653 255.069 219.834C254.889 220.014 254.787 220.259 254.787 220.514H251.9C251.9 220.259 251.798 220.014 251.618 219.834C251.437 219.653 251.193 219.552 250.937 219.552H248.05C247.795 219.552 247.55 219.653 247.369 219.834C247.189 220.014 247.087 220.259 247.087 220.514H244.2C244.2 220.259 244.099 220.014 243.918 219.834C243.738 219.653 243.493 219.552 243.237 219.552H240.35C240.095 219.552 239.85 219.653 239.669 219.834C239.489 220.014 239.388 220.259 239.388 220.514H236.5C236.5 220.259 236.399 220.014 236.218 219.834C236.038 219.653 235.793 219.552 235.538 219.552H232.65C232.395 219.552 232.15 219.653 231.97 219.834C231.789 220.014 231.688 220.259 231.688 220.514H228.8C228.8 220.259 228.699 220.014 228.518 219.834C228.338 219.653 228.093 219.552 227.838 219.552H224.95C224.695 219.552 224.45 219.653 224.27 219.834C224.089 220.014 223.988 220.259 223.988 220.514H214.844C214.079 220.515 213.346 220.82 212.805 221.361C212.265 221.902 211.961 222.635 211.961 223.4C211.961 224.165 212.265 224.898 212.805 225.439C213.346 225.98 214.079 226.285 214.844 226.286H314.942C315.708 226.286 316.442 225.982 316.984 225.441C317.525 224.899 317.83 224.165 317.83 223.4C317.83 222.635 317.525 221.9 316.984 221.359C316.442 220.818 315.708 220.514 314.942 220.514Z" fill="#3F3D56"/>
<path d="M199.96 203.754V222.917H151.925C150.638 222.962 149.356 222.747 148.153 222.286C146.951 221.824 145.854 221.126 144.928 220.232C144.002 219.338 143.265 218.266 142.762 217.081C142.259 215.897 142 214.623 142 213.336C142 212.049 142.259 210.775 142.762 209.59C143.265 208.405 144.002 207.334 144.928 206.44C145.854 205.546 146.951 204.847 148.153 204.386C149.356 203.924 150.638 203.71 151.925 203.754H199.96Z" fill="#F2F2F2"/>
<path d="M201.14 222.769C201.139 222.965 201.062 223.152 200.924 223.291C200.785 223.429 200.598 223.506 200.402 223.506H151.07C148.39 223.506 145.821 222.443 143.926 220.549C142.032 218.655 140.967 216.087 140.967 213.409C140.967 210.731 142.032 208.163 143.926 206.269C145.821 204.376 148.39 203.312 151.07 203.312H200.402C200.598 203.312 200.785 203.39 200.924 203.528C201.062 203.666 201.14 203.854 201.14 204.049C201.14 204.245 201.062 204.432 200.924 204.57C200.785 204.708 200.598 204.786 200.402 204.786H151.07C148.783 204.788 146.59 205.698 144.974 207.314C143.358 208.931 142.45 211.124 142.45 213.409C142.45 215.695 143.358 217.887 144.974 219.504C146.59 221.121 148.783 222.03 151.07 222.032H200.402C200.598 222.032 200.785 222.11 200.923 222.248C201.062 222.387 201.139 222.574 201.14 222.769Z" fill="#6C63FF"/>
<path d="M199.96 208.176H148.341C148.322 208.177 148.303 208.173 148.285 208.165C148.267 208.158 148.25 208.147 148.236 208.134C148.223 208.12 148.212 208.104 148.204 208.086C148.197 208.068 148.193 208.048 148.193 208.029C148.193 208.01 148.197 207.99 148.204 207.972C148.212 207.954 148.223 207.938 148.236 207.924C148.25 207.911 148.267 207.9 148.285 207.893C148.303 207.885 148.322 207.881 148.341 207.882H199.96C199.999 207.882 200.036 207.898 200.063 207.925C200.091 207.953 200.106 207.99 200.106 208.029C200.106 208.068 200.091 208.105 200.063 208.133C200.036 208.161 199.999 208.176 199.96 208.176Z" fill="#CCCCCC"/>
<path d="M199.96 211.714H148.341C148.322 211.714 148.303 211.711 148.285 211.703C148.267 211.696 148.25 211.685 148.236 211.671C148.223 211.658 148.212 211.641 148.204 211.623C148.197 211.606 148.193 211.586 148.193 211.567C148.193 211.547 148.197 211.528 148.204 211.51C148.212 211.492 148.223 211.476 148.236 211.462C148.25 211.449 148.267 211.438 148.285 211.43C148.303 211.423 148.322 211.419 148.341 211.419H199.96C199.999 211.42 200.036 211.435 200.063 211.463C200.091 211.491 200.106 211.528 200.106 211.567C200.106 211.606 200.091 211.643 200.063 211.671C200.036 211.698 199.999 211.714 199.96 211.714Z" fill="#CCCCCC"/>
<path d="M199.96 215.252H148.341C148.322 215.252 148.303 215.248 148.285 215.241C148.267 215.234 148.25 215.223 148.236 215.209C148.223 215.195 148.212 215.179 148.204 215.161C148.197 215.143 148.193 215.124 148.193 215.104C148.193 215.085 148.197 215.066 148.204 215.048C148.212 215.03 148.223 215.014 148.236 215C148.25 214.986 148.267 214.975 148.285 214.968C148.303 214.961 148.322 214.957 148.341 214.957H199.96C199.999 214.957 200.036 214.973 200.063 215.001C200.091 215.028 200.106 215.066 200.106 215.104C200.106 215.143 200.091 215.181 200.063 215.208C200.036 215.236 199.999 215.252 199.96 215.252Z" fill="#CCCCCC"/>
<path d="M199.96 218.79H148.341C148.322 218.79 148.303 218.786 148.285 218.779C148.267 218.771 148.25 218.761 148.236 218.747C148.223 218.733 148.212 218.717 148.204 218.699C148.197 218.681 148.193 218.662 148.193 218.642C148.193 218.623 148.197 218.604 148.204 218.586C148.212 218.568 148.223 218.551 148.236 218.538C148.25 218.524 148.267 218.513 148.285 218.506C148.303 218.498 148.322 218.495 148.341 218.495H199.96C199.999 218.495 200.036 218.511 200.063 218.538C200.091 218.566 200.106 218.603 200.106 218.642C200.106 218.681 200.091 218.719 200.063 218.746C200.036 218.774 199.999 218.789 199.96 218.79Z" fill="#CCCCCC"/>
<path d="M190.905 183.565V202.728H142.87C141.583 202.773 140.301 202.558 139.098 202.097C137.896 201.635 136.799 200.937 135.873 200.043C134.947 199.149 134.21 198.077 133.707 196.892C133.204 195.708 132.945 194.434 132.945 193.147C132.945 191.86 133.204 190.586 133.707 189.401C134.21 188.216 134.947 187.145 135.873 186.251C136.799 185.357 137.896 184.658 139.098 184.197C140.301 183.735 141.583 183.521 142.87 183.565H190.905Z" fill="#F2F2F2"/>
<path d="M192.085 202.58C192.085 202.776 192.007 202.963 191.869 203.102C191.73 203.24 191.543 203.317 191.347 203.318H142.015C140.688 203.318 139.374 203.056 138.149 202.549C136.923 202.041 135.809 201.298 134.871 200.36C133.933 199.422 133.189 198.309 132.681 197.084C132.174 195.859 131.912 194.546 131.912 193.22C131.912 191.894 132.174 190.581 132.681 189.356C133.189 188.131 133.933 187.018 134.871 186.08C135.809 185.143 136.923 184.399 138.149 183.892C139.374 183.384 140.688 183.123 142.015 183.123H191.347C191.543 183.123 191.73 183.201 191.869 183.339C192.007 183.477 192.085 183.665 192.085 183.86C192.085 184.056 192.007 184.243 191.869 184.381C191.73 184.519 191.543 184.597 191.347 184.597H142.015C139.728 184.599 137.535 185.509 135.919 187.126C134.303 188.742 133.395 190.935 133.395 193.22C133.395 195.506 134.303 197.698 135.919 199.315C137.535 200.932 139.728 201.841 142.015 201.843H191.347C191.543 201.844 191.73 201.921 191.869 202.059C192.007 202.198 192.085 202.385 192.085 202.58Z" fill="#3F3D56"/>
<path d="M190.905 187.987H139.286C139.267 187.988 139.248 187.984 139.23 187.977C139.212 187.969 139.195 187.958 139.181 187.945C139.168 187.931 139.157 187.915 139.149 187.897C139.142 187.879 139.138 187.859 139.138 187.84C139.138 187.821 139.142 187.801 139.149 187.783C139.157 187.765 139.168 187.749 139.181 187.735C139.195 187.722 139.212 187.711 139.23 187.704C139.248 187.696 139.267 187.692 139.286 187.693H190.905C190.944 187.693 190.981 187.709 191.008 187.736C191.036 187.764 191.051 187.801 191.051 187.84C191.051 187.879 191.036 187.916 191.008 187.944C190.981 187.972 190.944 187.987 190.905 187.987Z" fill="#CCCCCC"/>
<path d="M190.905 191.525H139.286C139.267 191.525 139.248 191.522 139.23 191.514C139.212 191.507 139.195 191.496 139.181 191.482C139.168 191.469 139.157 191.452 139.149 191.435C139.142 191.417 139.138 191.397 139.138 191.378C139.138 191.358 139.142 191.339 139.149 191.321C139.157 191.303 139.168 191.287 139.181 191.273C139.195 191.26 139.212 191.249 139.23 191.241C139.248 191.234 139.267 191.23 139.286 191.23H190.905C190.944 191.231 190.981 191.246 191.008 191.274C191.036 191.302 191.051 191.339 191.051 191.378C191.051 191.417 191.036 191.454 191.008 191.482C190.981 191.509 190.944 191.525 190.905 191.525Z" fill="#CCCCCC"/>
<path d="M190.905 195.063H139.286C139.267 195.063 139.248 195.059 139.23 195.052C139.212 195.045 139.195 195.034 139.181 195.02C139.168 195.006 139.157 194.99 139.149 194.972C139.142 194.954 139.138 194.935 139.138 194.915C139.138 194.896 139.142 194.877 139.149 194.859C139.157 194.841 139.168 194.825 139.181 194.811C139.195 194.797 139.212 194.786 139.23 194.779C139.248 194.772 139.267 194.768 139.286 194.768H190.905C190.944 194.768 190.981 194.784 191.008 194.812C191.036 194.839 191.051 194.877 191.051 194.915C191.051 194.954 191.036 194.992 191.008 195.019C190.981 195.047 190.944 195.063 190.905 195.063Z" fill="#CCCCCC"/>
<path d="M190.905 198.601H139.286C139.267 198.601 139.248 198.597 139.23 198.59C139.212 198.582 139.195 198.572 139.181 198.558C139.168 198.544 139.157 198.528 139.149 198.51C139.142 198.492 139.138 198.473 139.138 198.453C139.138 198.434 139.142 198.415 139.149 198.397C139.157 198.379 139.168 198.362 139.181 198.349C139.195 198.335 139.212 198.324 139.23 198.317C139.248 198.309 139.267 198.306 139.286 198.306H190.905C190.944 198.306 190.981 198.322 191.008 198.349C191.036 198.377 191.051 198.414 191.051 198.453C191.051 198.492 191.036 198.53 191.008 198.557C190.981 198.585 190.944 198.6 190.905 198.601Z" fill="#CCCCCC"/>
<path d="M246.783 291.03V274.322C246.783 273.583 246.49 272.875 245.967 272.352C245.445 271.83 244.736 271.537 243.997 271.537H180.613C179.874 271.537 179.165 271.83 178.643 272.352C178.12 272.875 177.827 273.583 177.827 274.322V291.03H246.783Z" fill="#8B4040"/>
<path d="M246.783 297.295H177.827V318.877H246.783V297.295Z" fill="#8B4040"/>
<path d="M177.827 325.142V341.85C177.827 342.589 178.12 343.297 178.643 343.819C179.165 344.341 179.874 344.635 180.613 344.635H243.997C244.736 344.635 245.445 344.341 245.967 343.819C246.49 343.297 246.783 342.589 246.783 341.85V325.142H177.827Z" fill="#8B4040"/>
<path d="M211.957 284.068C213.111 284.068 214.046 283.133 214.046 281.98C214.046 280.826 213.111 279.891 211.957 279.891C210.803 279.891 209.867 280.826 209.867 281.98C209.867 283.133 210.803 284.068 211.957 284.068Z" fill="white"/>
<path d="M211.957 311.915C213.111 311.915 214.046 310.98 214.046 309.826C214.046 308.673 213.111 307.738 211.957 307.738C210.803 307.738 209.867 308.673 209.867 309.826C209.867 310.98 210.803 311.915 211.957 311.915Z" fill="white"/>
<path d="M212.069 339.172C213.223 339.172 214.158 338.237 214.158 337.084C214.158 335.93 213.223 334.995 212.069 334.995C210.915 334.995 209.979 335.93 209.979 337.084C209.979 338.237 210.915 339.172 212.069 339.172Z" fill="white"/>
<path d="M238.965 252.486V271.649H190.931C189.644 271.694 188.361 271.479 187.159 271.018C185.957 270.556 184.86 269.858 183.934 268.964C183.008 268.069 182.271 266.998 181.768 265.813C181.265 264.629 181.005 263.355 181.005 262.068C181.005 260.781 181.265 259.507 181.768 258.322C182.271 257.137 183.008 256.066 183.934 255.172C184.86 254.277 185.957 253.579 187.159 253.118C188.361 252.656 189.644 252.442 190.931 252.486H238.965Z" fill="#F2F2F2"/>
<path d="M240.145 271.502C240.145 271.697 240.068 271.885 239.929 272.023C239.791 272.161 239.604 272.239 239.408 272.239H190.076C188.748 272.24 187.434 271.979 186.207 271.472C184.98 270.966 183.866 270.222 182.927 269.284C181.988 268.346 181.243 267.233 180.735 266.007C180.226 264.782 179.965 263.468 179.965 262.141C179.965 260.815 180.226 259.501 180.735 258.275C181.243 257.05 181.988 255.936 182.927 254.999C183.866 254.061 184.98 253.317 186.207 252.81C187.434 252.303 188.748 252.043 190.076 252.044H239.408C239.604 252.044 239.791 252.122 239.929 252.26C240.068 252.398 240.145 252.586 240.145 252.781C240.145 252.977 240.068 253.164 239.929 253.302C239.791 253.441 239.604 253.518 239.408 253.518H190.076C187.789 253.52 185.596 254.43 183.98 256.047C182.364 257.664 181.456 259.856 181.456 262.141C181.456 264.427 182.364 266.619 183.98 268.236C185.596 269.853 187.789 270.763 190.076 270.765H239.408C239.604 270.765 239.791 270.842 239.929 270.981C240.068 271.119 240.145 271.306 240.145 271.502Z" fill="#3F3D56"/>
<path d="M238.965 256.909H187.347C187.328 256.909 187.308 256.905 187.29 256.898C187.272 256.89 187.256 256.879 187.242 256.866C187.228 256.852 187.217 256.836 187.21 256.818C187.202 256.8 187.199 256.781 187.199 256.761C187.199 256.742 187.202 256.722 187.21 256.705C187.217 256.687 187.228 256.67 187.242 256.657C187.256 256.643 187.272 256.632 187.29 256.625C187.308 256.617 187.328 256.614 187.347 256.614H238.965C239.004 256.614 239.042 256.63 239.069 256.657C239.097 256.685 239.112 256.722 239.112 256.761C239.112 256.8 239.097 256.837 239.069 256.865C239.042 256.893 239.004 256.908 238.965 256.909Z" fill="#CCCCCC"/>
<path d="M238.965 260.446H187.347C187.328 260.446 187.308 260.443 187.29 260.435C187.272 260.428 187.256 260.417 187.242 260.403C187.228 260.39 187.217 260.373 187.21 260.355C187.202 260.337 187.199 260.318 187.199 260.299C187.199 260.279 187.202 260.26 187.21 260.242C187.217 260.224 187.228 260.208 187.242 260.194C187.256 260.18 187.272 260.17 187.29 260.162C187.308 260.155 187.328 260.151 187.347 260.151H238.965C239.004 260.152 239.042 260.167 239.069 260.195C239.097 260.222 239.112 260.26 239.112 260.299C239.112 260.338 239.097 260.375 239.069 260.403C239.042 260.43 239.004 260.446 238.965 260.446Z" fill="#CCCCCC"/>
<path d="M238.965 263.984H187.347C187.328 263.984 187.308 263.98 187.29 263.973C187.272 263.966 187.256 263.955 187.242 263.941C187.228 263.927 187.217 263.911 187.21 263.893C187.202 263.875 187.199 263.856 187.199 263.837C187.199 263.817 187.202 263.798 187.21 263.78C187.217 263.762 187.228 263.746 187.242 263.732C187.256 263.718 187.272 263.707 187.29 263.7C187.308 263.693 187.328 263.689 187.347 263.689H238.965C239.004 263.689 239.042 263.705 239.069 263.733C239.097 263.76 239.112 263.798 239.112 263.837C239.112 263.876 239.097 263.913 239.069 263.941C239.042 263.968 239.004 263.984 238.965 263.984Z" fill="#CCCCCC"/>
<path d="M238.965 267.522H187.347C187.328 267.522 187.308 267.518 187.29 267.511C187.272 267.503 187.256 267.493 187.242 267.479C187.228 267.465 187.217 267.449 187.21 267.431C187.202 267.413 187.199 267.394 187.199 267.374C187.199 267.355 187.202 267.336 187.21 267.318C187.217 267.3 187.228 267.283 187.242 267.27C187.256 267.256 187.272 267.245 187.29 267.238C187.308 267.23 187.328 267.227 187.347 267.227H238.965C239.004 267.227 239.042 267.243 239.069 267.27C239.097 267.298 239.112 267.335 239.112 267.374C239.112 267.413 239.097 267.45 239.069 267.478C239.042 267.506 239.004 267.521 238.965 267.522Z" fill="#CCCCCC"/>
<path d="M174.21 127.414V5.23621C174.211 3.84797 174.764 2.51704 175.746 1.5354C176.728 0.553763 178.06 0.00157908 179.449 0H276.078C277.467 0.00158828 278.798 0.553775 279.78 1.53541C280.762 2.51705 281.315 3.84797 281.317 5.23621V127.414C281.315 128.803 280.762 130.133 279.78 131.115C278.798 132.097 277.467 132.649 276.078 132.651H179.449C178.06 132.649 176.728 132.097 175.746 131.115C174.764 130.133 174.211 128.803 174.21 127.414ZM179.449 1.1636C178.368 1.16481 177.333 1.59428 176.569 2.35778C175.805 3.12128 175.375 4.15646 175.374 5.23621V127.414C175.375 128.494 175.805 129.529 176.569 130.293C177.333 131.056 178.368 131.486 179.449 131.487H276.078C277.158 131.486 278.194 131.056 278.958 130.293C279.721 129.529 280.151 128.494 280.152 127.414V5.23621C280.151 4.15646 279.721 3.12128 278.958 2.35778C278.194 1.59428 277.158 1.16481 276.078 1.1636H179.449Z" fill="#E6E6E6"/>
<path d="M233.182 56.1099V31.0229C233.183 30.3288 233.459 29.6633 233.95 29.1725C234.441 28.6816 235.107 28.4056 235.801 28.4048H257.071C257.766 28.4056 258.431 28.6816 258.923 29.1725C259.414 29.6633 259.69 30.3288 259.691 31.0229V56.1099C259.69 56.8041 259.414 57.4695 258.923 57.9603C258.431 58.4512 257.766 58.7273 257.071 58.728H235.801C235.107 58.7273 234.441 58.4512 233.95 57.9603C233.459 57.4695 233.183 56.8041 233.182 56.1099Z" fill="#6C63FF"/>
<path d="M191.853 67.7458V42.6589C191.853 41.9647 192.13 41.2993 192.621 40.8084C193.112 40.3176 193.778 40.0415 194.472 40.0408H215.742C216.436 40.0415 217.102 40.3176 217.593 40.8084C218.084 41.2993 218.361 41.9647 218.361 42.6589V67.7459C218.361 68.44 218.084 69.1055 217.593 69.5963C217.102 70.0871 216.436 70.3632 215.742 70.364H194.472C193.778 70.3632 193.112 70.0871 192.621 69.5963C192.13 69.1055 191.853 68.44 191.853 67.7458Z" fill="#CCCCCC"/>
<path d="M225.032 103.236V78.1486C225.033 77.4545 225.309 76.789 225.8 76.2982C226.292 75.8074 226.957 75.5313 227.652 75.5305H248.922C249.616 75.5313 250.282 75.8074 250.773 76.2982C251.264 76.789 251.54 77.4545 251.541 78.1486V103.236C251.54 103.93 251.264 104.595 250.773 105.086C250.282 105.577 249.616 105.853 248.922 105.854H227.652C226.957 105.853 226.292 105.577 225.8 105.086C225.309 104.595 225.033 103.93 225.032 103.236Z" fill="#FFD600"/>
<path d="M352.141 217.932H330.256C330.048 217.931 329.843 217.979 329.657 218.071L324.133 220.835C323.951 220.912 323.796 221.041 323.687 221.205C323.578 221.37 323.52 221.563 323.52 221.761C323.52 221.958 323.578 222.151 323.687 222.316C323.796 222.48 323.951 222.609 324.133 222.686L329.657 225.45C329.843 225.542 330.048 225.59 330.256 225.589H352.141C352.442 225.607 352.739 225.505 352.965 225.306C353.192 225.106 353.331 224.826 353.353 224.524V218.997C353.331 218.696 353.192 218.415 352.965 218.216C352.739 218.016 352.442 217.914 352.141 217.932Z" fill="#3F3D56"/>
<path d="M353.353 218.997V224.524C353.331 224.826 353.192 225.106 352.965 225.306C352.739 225.505 352.442 225.607 352.141 225.589H347.781V217.932H352.141C352.442 217.914 352.739 218.016 352.965 218.216C353.192 218.415 353.331 218.696 353.353 218.997Z" fill="#6C63FF"/>
<path d="M351.976 176.579C352.967 176.152 354.038 175.938 355.117 175.953C356.197 175.968 357.261 176.21 358.24 176.665C359.22 177.119 360.092 177.775 360.799 178.59C361.507 179.405 362.035 180.36 362.348 181.393C362.445 181.72 362.52 182.054 362.571 182.392L393.175 197.56L400.257 192.869L409.07 203.009L398.256 211.788C396.955 212.835 395.351 213.435 393.682 213.5C392.013 213.564 390.368 213.089 388.991 212.145L357.94 190.683C357.709 190.781 357.473 190.867 357.233 190.941C356.2 191.253 355.112 191.344 354.041 191.207C352.97 191.069 351.94 190.708 351.018 190.145C350.097 189.582 349.305 188.831 348.694 187.941C348.083 187.051 347.668 186.043 347.474 184.981C347.417 184.673 347.379 184.361 347.361 184.048C347.275 182.481 347.671 180.925 348.496 179.59C349.321 178.255 350.536 177.204 351.976 176.579Z" fill="#FFB8B8"/>
<path d="M415.719 269.969H382.278C382.278 270.93 347.814 271.71 347.814 271.71C347.273 272.117 346.78 272.584 346.345 273.102C345.035 274.663 344.32 276.635 344.324 278.672V280.064C344.325 282.372 345.243 284.585 346.875 286.216C348.508 287.848 350.722 288.765 353.031 288.766H415.719C418.027 288.764 420.241 287.847 421.873 286.215C423.505 284.584 424.423 282.371 424.425 280.064V278.672C424.422 276.365 423.504 274.153 421.872 272.522C420.24 270.891 418.027 269.973 415.719 269.969Z" fill="#3F3D56"/>
<path d="M379.343 346.899H388.398V288.421H379.343V346.899Z" fill="#3F3D56"/>
<path d="M353.572 346.581C353.572 347.559 367.293 346.959 384.219 346.959C401.145 346.959 414.867 347.559 414.867 346.581C414.867 345.603 401.145 337.849 384.219 337.849C367.293 337.849 353.572 345.603 353.572 346.581Z" fill="#3F3D56"/>
<path d="M361.746 339.727L353.207 339.726L349.144 317.59L361.747 317.591L361.746 339.727Z" fill="#FFB8B8"/>
<path d="M363.924 348L336.39 347.999V347.651C336.39 346.244 336.667 344.851 337.205 343.552C337.744 342.252 338.533 341.071 339.529 340.077C340.524 339.082 341.705 338.293 343.005 337.755C344.306 337.216 345.699 336.939 347.107 336.939H347.107L363.924 336.94L363.924 348Z" fill="#2F2E41"/>
<path d="M348.974 326L331.95 287.844C330.529 284.628 330.372 280.995 331.51 277.669C332.648 274.342 334.999 271.566 338.093 269.894L375.018 250.104L391.868 248.671L407.411 247.259L407.523 247.449C407.666 247.691 411.008 253.46 408.749 259.786C407.036 264.584 402.579 268.333 395.502 270.926C378.984 276.98 359.903 282.153 352.466 284.096C352.137 284.18 351.83 284.333 351.565 284.544C351.299 284.755 351.081 285.02 350.926 285.321C350.77 285.619 350.677 285.946 350.653 286.281C350.63 286.617 350.676 286.953 350.789 287.27L366.605 322.785C366.77 323.235 366.829 323.718 366.779 324.195C366.728 324.672 366.568 325.131 366.312 325.536C366.055 325.942 365.709 326.283 365.3 326.534C364.891 326.785 364.429 326.938 363.951 326.982L352.134 327.842C352.033 327.852 351.934 327.857 351.834 327.857C351.229 327.856 350.637 327.681 350.129 327.351C349.622 327.022 349.22 326.552 348.974 326Z" fill="#2F2E41"/>
<path d="M365.925 339.727L357.386 339.726L353.323 317.59L365.926 317.591L365.925 339.727Z" fill="#FFB8B8"/>
<path d="M368.103 348L340.569 347.999V347.651C340.569 346.244 340.846 344.851 341.385 343.552C341.923 342.252 342.713 341.071 343.708 340.077C344.703 339.082 345.884 338.293 347.185 337.755C348.485 337.216 349.878 336.939 351.286 336.939H351.287L368.104 336.94L368.103 348Z" fill="#2F2E41"/>
<path d="M353.85 328.088L336.826 289.933C335.405 286.717 335.247 283.084 336.386 279.757C337.524 276.431 339.874 273.655 342.968 271.983L379.894 252.192L396.744 250.759L412.287 249.347L412.399 249.537C412.542 249.779 415.884 255.548 413.625 261.874C411.911 266.673 407.454 270.421 400.378 273.015C383.86 279.068 364.779 284.242 357.342 286.185C357.013 286.269 356.706 286.421 356.44 286.632C356.175 286.844 355.957 287.109 355.801 287.41C355.645 287.708 355.553 288.034 355.529 288.37C355.506 288.705 355.552 289.042 355.665 289.358L371.481 324.873C371.646 325.324 371.705 325.806 371.654 326.283C371.604 326.76 371.444 327.219 371.187 327.625C370.931 328.03 370.585 328.371 370.176 328.622C369.767 328.873 369.305 329.026 368.827 329.071L357.009 329.931C356.909 329.94 356.809 329.945 356.71 329.945C356.105 329.945 355.512 329.769 355.005 329.44C354.497 329.11 354.096 328.641 353.85 328.088Z" fill="#2F2E41"/>
<path d="M345.365 211.528C338.211 202.017 332.556 191.468 328.595 180.247C328.366 179.576 328.382 178.845 328.641 178.185C328.9 177.525 329.386 176.978 330.01 176.642L354.49 163.532C354.886 163.318 355.326 163.197 355.776 163.179C356.225 163.161 356.673 163.246 357.085 163.426C357.505 163.609 357.877 163.884 358.175 164.232C358.472 164.58 358.685 164.991 358.8 165.434C361.649 176.247 367.005 186.237 374.434 194.597C374.74 194.938 374.964 195.343 375.089 195.783C375.214 196.223 375.237 196.686 375.157 197.136C375.079 197.579 374.902 197.999 374.637 198.363C374.373 198.727 374.029 199.026 373.632 199.237L349.152 212.347C348.526 212.681 347.802 212.782 347.108 212.632C346.414 212.482 345.797 212.09 345.365 211.528Z" fill="#CCCCCC"/>
<path d="M347.035 210.273C347.167 210.437 347.352 210.55 347.558 210.593C347.764 210.636 347.979 210.605 348.165 210.506L372.645 197.396C372.764 197.334 372.867 197.245 372.945 197.137C373.024 197.029 373.077 196.904 373.099 196.771C373.125 196.632 373.118 196.489 373.078 196.352C373.039 196.216 372.969 196.091 372.873 195.986C365.225 187.38 359.711 177.095 356.778 165.964C356.744 165.826 356.679 165.699 356.587 165.59C356.496 165.482 356.38 165.397 356.25 165.341C356.128 165.286 355.994 165.26 355.86 165.266C355.726 165.271 355.595 165.308 355.477 165.373L330.997 178.483C330.812 178.583 330.667 178.745 330.589 178.94C330.51 179.135 330.502 179.352 330.566 179.553C334.455 190.573 340.009 200.933 347.035 210.273Z" fill="white"/>
<path d="M426.69 208.031L407.518 215.312L402.838 202.317C402.216 200.591 402.225 198.702 402.862 196.982C403.5 195.262 404.725 193.823 406.322 192.919C407.937 192.004 409.826 191.697 411.647 192.053C413.469 192.408 415.104 193.403 416.256 194.858L426.69 208.031Z" fill="#6C63FF"/>
<path d="M377.926 259.519C377.523 259.234 377.185 258.866 376.934 258.44C376.684 258.014 376.527 257.54 376.475 257.049C374.019 234.138 375.73 216.209 381.703 202.236C382.755 199.826 384.34 197.686 386.339 195.976C388.337 194.266 390.698 193.031 393.242 192.364L408.74 191.583L408.82 191.621C412.317 193.333 415.169 196.126 416.953 199.586C418.737 203.045 419.358 206.987 418.724 210.828C413.74 223.96 409.566 237.632 412.749 248.662C412.882 249.123 412.921 249.606 412.863 250.083C412.806 250.559 412.652 251.019 412.412 251.435C412.179 251.837 411.867 252.187 411.493 252.463C411.12 252.74 410.694 252.937 410.242 253.042L380.724 260.061C380.246 260.174 379.749 260.185 379.267 260.091C378.784 259.998 378.327 259.803 377.926 259.519Z" fill="#6C63FF"/>
<path d="M403.568 185.797C413.016 185.797 420.675 178.142 420.675 168.699C420.675 159.255 413.016 151.6 403.568 151.6C394.12 151.6 386.46 159.255 386.46 168.699C386.46 178.142 394.12 185.797 403.568 185.797Z" fill="#FFB8B8"/>
<path d="M356.097 182.241L342.765 188.124C342.257 188.347 341.683 188.359 341.166 188.159C340.649 187.959 340.233 187.563 340.009 187.056L339.679 186.31C339.456 185.803 339.443 185.228 339.643 184.712C339.844 184.196 340.241 183.78 340.747 183.556L354.08 177.673C354.587 177.45 355.162 177.437 355.678 177.637C356.195 177.837 356.611 178.234 356.835 178.74L357.165 179.487C357.388 179.994 357.401 180.569 357.201 181.085C357.001 181.601 356.604 182.017 356.097 182.241Z" fill="#CCCCCC"/>
<path d="M360.973 191.291L347.64 197.174C347.133 197.397 346.558 197.41 346.042 197.21C345.525 197.01 345.109 196.613 344.885 196.107L344.555 195.36C344.332 194.853 344.319 194.279 344.519 193.762C344.719 193.246 345.116 192.83 345.623 192.606L358.956 186.724C359.463 186.5 360.037 186.488 360.554 186.688C361.071 186.888 361.487 187.284 361.711 187.791L362.041 188.537C362.264 189.044 362.277 189.619 362.077 190.135C361.876 190.651 361.48 191.067 360.973 191.291Z" fill="#CCCCCC"/>
<path d="M371.255 226.641L341.531 203.204C341.294 203.287 341.053 203.358 340.809 203.417C339.76 203.662 338.671 203.684 337.613 203.481C336.555 203.278 335.551 202.855 334.667 202.239C333.778 201.623 333.03 200.824 332.474 199.895C331.918 198.967 331.567 197.93 331.445 196.855C331.246 195.137 331.633 193.401 332.545 191.931C333.456 190.46 334.838 189.34 336.466 188.753C337.482 188.389 338.564 188.243 339.641 188.326C340.717 188.408 341.764 188.717 342.713 189.232C343.661 189.748 344.49 190.457 345.146 191.315C345.801 192.172 346.267 193.159 346.515 194.209C346.591 194.542 346.644 194.88 346.674 195.22L376.264 212.281L383.627 208.044L391.784 218.718L380.351 226.863C379.013 227.808 377.405 228.297 375.766 228.258C374.128 228.218 372.546 227.651 371.255 226.641Z" fill="#FFB8B8"/>
<path d="M395.411 222.042L378.452 210.515L386.422 199.232C387.48 197.734 389.035 196.658 390.81 196.195C392.585 195.731 394.467 195.909 396.124 196.698C397.799 197.497 399.134 198.867 399.887 200.563C400.64 202.259 400.761 204.168 400.229 205.945L395.411 222.042Z" fill="#6C63FF"/>
<path d="M397.296 166.152C392.899 169.16 387.125 172.251 382.634 169.048C379.686 166.945 378.757 163.051 379.952 159.633C382.103 153.487 388.011 150.781 393.66 148.707C401.005 146.01 409.002 143.865 416.584 145.796C424.166 147.727 430.867 155.064 429.498 162.764C428.397 168.956 422.554 174.108 423.383 180.342C424.218 186.616 431.278 189.919 437.51 191.04C443.742 192.161 450.717 192.521 455.195 196.996C460.909 202.703 459.482 212.906 454.106 218.932C448.73 224.958 440.616 227.69 432.755 229.547C422.338 232.007 411.072 233.3 401.179 229.217C391.287 225.134 383.588 214.142 386.454 203.835C387.664 199.481 390.516 195.801 393.272 192.219C396.028 188.637 398.818 184.891 399.87 180.497C400.746 176.834 400.097 172.582 397.667 169.835C397.225 169.354 396.947 168.746 396.873 168.097C396.799 167.448 396.932 166.793 397.253 166.224L397.296 166.152Z" fill="#2F2E41"/>
<path d="M75.9723 249.228C71.564 250.777 66.8309 251.165 62.2291 250.355C57.6273 249.545 53.3118 247.564 49.6983 244.602C40.4957 236.882 37.6105 224.164 35.2628 212.387C32.9482 200.776 30.6335 189.165 28.3189 177.554L42.8567 187.559C53.3114 194.754 64.0016 202.179 71.2404 212.601C78.4792 223.022 81.6389 237.249 75.8228 248.525" fill="#FFD600"/>
<path d="M74.7295 291.401C76.201 280.689 77.714 269.839 76.6818 259.012C75.7652 249.396 72.8301 240.005 66.8546 232.304C63.6828 228.224 59.8233 224.729 55.4497 221.975C54.3092 221.255 53.2595 223.062 54.395 223.778C61.9627 228.558 67.816 235.617 71.111 243.937C74.7503 253.188 75.3347 263.273 74.7076 273.102C74.3283 279.045 73.5245 284.949 72.7146 290.846C72.6507 291.113 72.6905 291.394 72.826 291.632C72.9615 291.871 73.1824 292.049 73.4443 292.131C73.7114 292.203 73.9962 292.166 74.2368 292.03C74.4774 291.893 74.6544 291.668 74.7295 291.401H74.7295Z" fill="#42FF00"/>
<path d="M60.5572 272.446C58.6666 275.318 56.0678 277.655 53.0112 279.231C49.9546 280.808 46.5432 281.572 43.1058 281.448C34.2716 281.029 26.9066 274.866 20.2768 269.016L0.667175 251.711L13.6455 251.09C22.9788 250.644 32.5528 250.227 41.4424 253.104C50.332 255.981 58.5305 262.904 60.156 272.101" fill="#FFD600"/>
<path d="M78.8879 297.559C71.8057 285.034 63.5911 271.114 48.9128 266.665C44.8315 265.432 40.5521 264.991 36.3048 265.364C34.9662 265.48 35.3005 267.542 36.6367 267.427C43.7559 266.836 50.8615 268.715 56.757 272.747C62.4302 276.607 66.8474 281.973 70.5861 287.663C72.8761 291.148 74.9274 294.781 76.9791 298.41C77.6347 299.569 79.5512 298.732 78.8879 297.559Z" fill="#42FF00"/>
<path d="M90.2355 310.743C89.9969 307.979 89.0042 305.334 87.3654 303.095C85.7267 300.857 83.5049 299.111 80.9419 298.047V290.806H68.7909V298.275C66.3541 299.391 64.2568 301.133 62.7131 303.323C61.1694 305.513 60.2344 308.074 60.0034 310.743L57.1462 343.939H93.0927L90.2355 310.743Z" fill="#4934AD"/>
</g>
<defs>
<clipPath id="clip0_40_53">
<rect width="482" height="348" fill="white"/>
</clipPath>
</defs>
</svg>
